<?xml version="1.0" encoding="iso-8859-1"?>
<!-- Generator: Adobe Illustrator 15.1.0, SVG Export Plug-In . SVG Version: 6.00 Build 0)  -->
<!DOCTYPE svg PUBLIC "-//W3C//DTD SVG 1.1//EN" "http://www.w3.org/Graphics/SVG/1.1/DTD/svg11.dtd">
<svg version="1.1" id="Layer_1" xmlns="http://www.w3.org/2000/svg" xmlns:xlink="http://www.w3.org/1999/xlink" x="0px" y="0px"
	 width="500px" height="300px" viewBox="0 0 500 300" style="enable-background:new 0 0 500 300;" xml:space="preserve">
<g id="ARC_1_">
	<g id="XMLID_1_">
		<linearGradient id="SVGID_1_" gradientUnits="userSpaceOnUse" x1="266.498" y1="135.0215" x2="266.498" y2="0.245">
			<stop  offset="0" style="stop-color:#313A61"/>
			<stop  offset="1" style="stop-color:#86C4BA"/>
		</linearGradient>
		<path style="fill:url(#SVGID_1_);" d="M327.9,76.588c-10.318,43.62-36.443,81.844-73.33,107.283
			c-3.367,2.321-7.775,2.321-11.143,0c-14.442-9.96-27.345-21.968-38.333-35.627C250.912,133.936,292.896,109.431,327.9,76.588z
			 M248.991,173.408c22.193-15.563,40.312-36.235,52.843-60.25c-23.512,16.78-49.139,30.376-76.197,40.477
			C232.818,160.924,240.62,167.529,248.991,173.408z"/>
		<linearGradient id="SVGID_2_" gradientUnits="userSpaceOnUse" x1="255.8887" y1="135.0244" x2="255.8887" y2="0.2437">
			<stop  offset="0" style="stop-color:#313A61"/>
			<stop  offset="1" style="stop-color:#86C4BA"/>
		</linearGradient>
		<path style="fill:url(#SVGID_2_);" d="M328.564,62.28c-36.121,36.254-80.724,62.949-129.785,77.639
			c-5.918-8.332-11.131-17.135-15.565-26.342C234.263,104.997,283.443,87.655,328.564,62.28z"/>
		<linearGradient id="SVGID_3_" gradientUnits="userSpaceOnUse" x1="248.9985" y1="135.0181" x2="248.9985" y2="0.2428">
			<stop  offset="0" style="stop-color:#313A61"/>
			<stop  offset="1" style="stop-color:#86C4BA"/>
		</linearGradient>
		<path style="fill:url(#SVGID_3_);" d="M332.709,30.67c0.148,6.061-0.02,12.137-0.477,18.179
			c-47.139,27.894-99.102,46.711-153.185,55.478c-9.667-23.322-14.368-48.402-13.76-73.657c0.12-5.314,4.475-9.562,9.808-9.562
			H322.9C328.232,21.108,332.584,25.356,332.709,30.67z M320.848,41.844c0.127-2.996,0.166-5.984,0.127-8.981H177.023
			c-0.25,19.818,2.991,39.523,9.558,58.224C233.778,82.342,279.174,65.686,320.848,41.844z"/>
	</g>
</g>
<g>
	<path style="fill:#313A61;" d="M52.957,276.386c-4.065,0-7.63-0.892-10.689-2.684c-3.06-1.784-5.438-4.374-7.137-7.769
		c-1.699-3.397-2.543-7.486-2.543-12.269c0-4.734,0.891-8.811,2.677-12.226c1.79-3.419,4.313-6.042,7.572-7.874
		c3.262-1.831,7.083-2.747,11.462-2.747c4.824,0,8.697,0.879,11.627,2.647c2.922,1.763,5.259,4.5,7.002,8.207l-8.579,3.688
		c-0.714-2.368-1.936-4.124-3.653-5.264c-1.721-1.14-3.832-1.705-6.333-1.705c-3.753,0-6.724,1.315-8.912,3.95
		c-2.191,2.64-3.286,6.392-3.286,11.261c0,5.047,1.053,8.868,3.151,11.457c2.1,2.595,5.203,3.885,9.313,3.885
		c2.995,0,5.485-0.722,7.474-2.174c1.985-1.453,2.983-3.652,2.983-6.603v-1.006H53.493v-6.766h19.571v23.318h-6.502l-0.401-5.629
		c-1.25,2.011-2.995,3.563-5.228,4.658C58.698,275.839,56.04,276.386,52.957,276.386z"/>
	<path style="fill:#313A61;" d="M126.871,231.486v26.806c0,6.031-1.605,10.555-4.822,13.573c-3.217,3.013-7.909,4.521-14.075,4.521
		c-6.164,0-10.854-1.508-14.071-4.521c-3.216-3.019-4.826-7.542-4.826-13.573v-26.806h9.249v26.402c0,3.708,0.791,6.455,2.379,8.242
		c1.587,1.789,4.008,2.682,7.27,2.682c3.263,0,5.672-0.893,7.237-2.682c1.564-1.787,2.348-4.534,2.348-8.242v-26.402H126.871z"/>
	<path style="fill:#313A61;" d="M137.66,275.715l16.151-44.229h11.058l16.151,44.229h-9.585l-3.687-10.789h-17.02l-3.617,10.789
		H137.66z M157.295,245.491l-4.287,12.601h12.464l-4.158-12.463l-2.008-6.703h-0.134L157.295,245.491z"/>
	<path style="fill:#313A61;" d="M213.789,231.486c4.957,0,8.877,1.205,11.76,3.621c2.88,2.41,4.322,5.652,4.322,9.716
		c0,3.258-0.818,5.952-2.447,8.073c-1.63,2.124-3.921,3.608-6.87,4.458l11.929,18.36h-10.387l-10.388-16.955h-8.307v16.955h-9.114
		v-44.229H213.789z M212.715,251.724c5.135,0,7.707-2.143,7.707-6.432c0-4.29-2.571-6.435-7.707-6.435h-9.313v12.866H212.715z"/>
	<path style="fill:#313A61;" d="M263.643,231.486c6.922,0,12.285,1.921,16.082,5.764c3.797,3.842,5.695,9.292,5.695,16.353
		c0,7.058-1.898,12.51-5.695,16.35c-3.797,3.845-9.16,5.763-16.082,5.763h-17.088v-44.229H263.643z M263.172,268.344
		c4.197,0,7.361-1.26,9.482-3.784c2.121-2.526,3.184-6.179,3.184-10.957c0-4.782-1.063-8.435-3.184-10.958
		c-2.121-2.526-5.285-3.787-9.482-3.787h-7.371v29.486H263.172z"/>
	<path style="fill:#313A61;" d="M320.938,231.486c4.957,0,8.879,1.205,11.764,3.621c2.879,2.41,4.32,5.652,4.32,9.716
		c0,3.258-0.818,5.952-2.447,8.073c-1.631,2.124-3.922,3.608-6.869,4.458l11.928,18.36h-10.387l-10.387-16.955h-8.309v16.955h-9.113
		v-44.229H320.938z M319.863,251.724c5.137,0,7.705-2.143,7.705-6.432c0-4.29-2.568-6.435-7.705-6.435h-9.313v12.866H319.863z"/>
	<path style="fill:#313A61;" d="M348.748,275.715l16.152-44.229h11.055l16.15,44.229h-9.584l-3.686-10.789h-17.02l-3.619,10.789
		H348.748z M368.385,245.491l-4.289,12.601h12.463l-4.156-12.463l-2.008-6.703h-0.135L368.385,245.491z"/>
	<path style="fill:#313A61;" d="M414.621,231.486v44.229h-9.248v-44.229H414.621z"/>
	<path style="fill:#313A61;" d="M442.094,268.275h23.318v7.439h-32.564v-44.229h9.246V268.275z"/>
</g>
</svg>
